<?xml version="1.0" standalone="no"?><!DOCTYPE svg PUBLIC "-//W3C//DTD SVG 1.1//EN" "http://www.w3.org/Graphics/SVG/1.1/DTD/svg11.dtd"><svg t="1696580562002" class="icon" viewBox="0 0 1024 1024" version="1.1" xmlns="http://www.w3.org/2000/svg" p-id="2545" xmlns:xlink="http://www.w3.org/1999/xlink" width="200" height="200"><path d="M16.003 795.2v86.4c0 19.2 16 35.202 35.2 35.202h672c19.2 0 35.2-16.001 35.2-35.201v-86.4h-742.4z" fill="#E1E6E9" p-id="2546"></path><path d="M723.201 932.8h-672C22.404 932.8 0.003 910.4 0.003 881.6v-86.4c0-9.601 6.4-16.001 16-16.001h742.402c9.6 0 16 6.4 16 16v86.4c-0.001 27.201-22.402 51.202-51.203 51.202z m-691.2-121.6v70.399c0 9.6 8.001 19.2 19.2 19.2h672c9.6 0 19.2-8 19.2-19.2v-70.4H32z" fill="#193651" p-id="2547"></path><path d="M758.402 795.2V312c0-19.2-16.001-35.2-35.201-35.2h-672c-19.2 0-35.2 16-35.2 35.2v483.2h742.4z" fill="#FFFFFF" p-id="2548"></path><path d="M758.402 811.2h-742.4c-9.6 0-16-6.4-16-16.001V312c0-28.8 22.4-51.199 51.2-51.199H723.2c28.8 0 51.2 22.4 51.2 51.2v483.2c0.002 7.998-6.398 15.999-16 15.999z m-726.4-32H742.4V312c0-9.6-8-19.2-19.2-19.2h-672c-9.6 0-19.2 8.001-19.2 19.2v467.2z" fill="#193651" p-id="2549"></path><path d="M80.002 340.8h614.4v388.799h-614.4z" fill="#2EA2DB" p-id="2550"></path><path d="M496.002 1008h-217.6l25.6-91.2h167.999z" fill="#FFFFFF" p-id="2551"></path><path d="M496.002 1024h-217.6c-4.8 0-9.6-1.6-12.8-6.4-3.2-3.2-4.799-9.6-3.2-14.4l25.6-91.2c1.6-6.4 8-11.2 16-11.2h168.001c8 0 12.8 4.8 16 11.2l24 89.6v6.4c-0.002 9.6-6.402 16-16 16z m-196.8-32h176L459.2 932.8H316.802l-17.6 59.2z" fill="#193651" p-id="2552"></path><path d="M537.603 1024H236.802c-9.601 0-16.001-6.4-16.001-16s6.4-16.002 16-16.002h302.4c9.601 0 16.001 6.4 16.001 16.001-1.6 9.601-8 16.001-17.6 16.001z" fill="#193651" p-id="2553"></path><path d="M976.002 16h-512c-17.599 0-32 14.401-32 32v364.801c0 17.6 14.401 32 32 32h70.4v120l209.6-120h232c17.599 0 32-14.4 32-32v-364.8c0-17.602-14.401-32-32-32z" fill="#F16051" p-id="2554"></path><path d="M526.401 577.599c-4.799-3.201-8-8-8-14.4v-104h-54.398c-27.2 0-48.001-20.8-48.001-48V48c0-27.2 20.8-48.001 48-48.001h512c27.2 0 48 20.8 48 48v364.801c0 27.2-20.8 48-48 48h-228.8l-204.8 118.4c-4.8 1.599-11.2 1.599-16-1.602z m-62.398-545.6c-9.601 0-16.001 6.4-16.001 16.002v364.8c0 9.6 6.4 16 16 16h70.4c9.6 0 16 6.4 16 16.002v92.8l185.6-107.2c3.202-1.601 4.8-1.601 8.001-1.601h232c9.602 0 16.001-6.4 16.001-16.001v-364.8c0-9.601-6.4-16.001-16-16.001H464.003z" fill="#193651" p-id="2555"></path><path d="M598.401 380.8H496.002V80h448v300.8h-217.6l-128 73.6z" fill="#FFFFFF" p-id="2556"></path><path d="M860.803 164.8H577.6c-9.601 0-16.001-6.4-16.001-16.001 0-9.6 6.4-16 16-16h283.2c9.602 0 16.001 6.4 16.001 16 0 8-6.4 16-15.998 16z m0 75.2H577.6c-9.601 0-16.001-6.4-16.001-16s6.4-16.001 16-16.001h283.2c9.602 0 16.001 6.4 16.001 16 0 8.001-6.4 16.002-15.998 16.002z m0 75.2H577.6c-9.601 0-16.001-6.4-16.001-16.001s6.4-16.001 16-16.001h283.2c9.602 0 16.001 6.4 16.001 16 0 8.001-6.4 16.001-15.998 16.001z m-576 524.8h31.999v32h-32zM371.202 840h32v32h-32z m86.4 0h32v32h-32z" fill="#193651" p-id="2557"></path></svg>