<?xml version="1.0" standalone="no"?><!DOCTYPE svg PUBLIC "-//W3C//DTD SVG 1.1//EN" "http://www.w3.org/Graphics/SVG/1.1/DTD/svg11.dtd"><svg height="1024" node-id="1" sillyvg="true" template-height="1024" template-width="1024" version="1.1" viewBox="0 0 1024 1024" width="1024" xmlns="http://www.w3.org/2000/svg" xmlns:xlink="http://www.w3.org/1999/xlink"><defs node-id="83"><radialGradient cx="0.5" cy="0.19668992" fx="0.5" fy="0.19668992" gradientTransform="matrix(0 1 -0.939735 0 0.68483648 -0.30331)" gradientUnits="objectBoundingBox" id="radialGradient-1" node-id="5" r="0.9393923" rev="3" spreadMethod="pad"><stop offset="0" stop-color="#ffe476"></stop><stop offset="0.41387266" stop-color="#fcec6c"></stop><stop offset="1" stop-color="#ffb02f"></stop></radialGradient><linearGradient gradientUnits="objectBoundingBox" id="linearGradient-6" node-id="21" spreadMethod="pad" x1="0.5" x2="0.5" y1="0.19668992" y2="1.1360823"><stop offset="0" stop-color="#ffe992"></stop><stop offset="0.4151543" stop-color="#fff185"></stop><stop offset="1" stop-color="#ffb02f"></stop></linearGradient><linearGradient gradientUnits="objectBoundingBox" id="linearGradient-12" node-id="39" spreadMethod="pad" x1="0.5" x2="0.5" y1="0" y2="1"><stop offset="0" stop-color="#ffffff"></stop><stop offset="1" stop-color="#ffedbe"></stop></linearGradient><filter height="1.173" id="filter-3" node-id="10" width="1.163" x="-0.081" y="-0.087"><feGaussianBlur color-interpolation-filters="linearRGB" in="SourceAlpha" result="shadowBlurInner1" stdDeviation="64 64"></feGaussianBlur><feOffset color-interpolation-filters="linearRGB" dx="0" dy="16" in="shadowBlurInner1" result="shadowOffsetInner1"></feOffset><feComposite color-interpolation-filters="linearRGB" in="shadowOffsetInner1" in2="SourceAlpha" k1="0" k2="-1" k3="1" k4="0" operator="arithmetic" result="shadowInnerInner1"></feComposite><feColorMatrix color-interpolation-filters="linearRGB" in="shadowInnerInner1" result="result4" type="matrix" values="0 0 0 0 0.968627451 0 0 0 0 0.68627451 0 0 0 0 0.270588235 0 0 0 0.501145583 0"></feColorMatrix></filter><filter height="1.189" id="filter-5" node-id="16" width="1.053" x="-0.026" y="-0.095"><feGaussianBlur color-interpolation-filters="linearRGB" in="SourceAlpha" result="shadowBlurInner1" stdDeviation="8 8"></feGaussianBlur><feOffset color-interpolation-filters="linearRGB" dx="0" dy="0" in="shadowBlurInner1" result="shadowOffsetInner1"></feOffset><feComposite color-interpolation-filters="linearRGB" in="shadowOffsetInner1" in2="SourceAlpha" k1="0" k2="-1" k3="1" k4="0" operator="arithmetic" result="shadowInnerInner1"></feComposite><feColorMatrix color-interpolation-filters="linearRGB" in="shadowInnerInner1" result="result4" type="matrix" values="0 0 0 0 0.661258421 0 0 0 0 0.0872254633 0 0 0 0 0.00982776113 0 0 0 1 0"></feColorMatrix></filter><filter height="1.403" id="filter-8" node-id="26" width="1.357" x="-0.244" y="-0.202"><feOffset color-interpolation-filters="linearRGB" dx="-32" dy="0" in="SourceAlpha" result="shadowOffsetOuter1"></feOffset><feGaussianBlur color-interpolation-filters="linearRGB" in="shadowOffsetOuter1" result="shadowBlurOuter1" stdDeviation="24 24"></feGaussianBlur><feColorMatrix color-interpolation-filters="linearRGB" in="shadowBlurOuter1" result="result3" type="matrix" values="0 0 0 0 0.696364251 0 0 0 0 0.548689709 0 0 0 0 0.14785881 0 0 0 0.684966401 0"></feColorMatrix></filter><filter height="1.33" id="filter-9" node-id="30" width="1.292" x="-0.211" y="-0.165"><feGaussianBlur color-interpolation-filters="linearRGB" in="SourceAlpha" result="shadowBlurInner1" stdDeviation="24 24"></feGaussianBlur><feOffset color-interpolation-filters="linearRGB" dx="0" dy="0" in="shadowBlurInner1" result="shadowOffsetInner1"></feOffset><feComposite color-interpolation-filters="linearRGB" in="shadowOffsetInner1" in2="SourceAlpha" k1="0" k2="-1" k3="1" k4="0" operator="arithmetic" result="shadowInnerInner1"></feComposite><feColorMatrix color-interpolation-filters="linearRGB" in="shadowInnerInner1" result="result4" type="matrix" values="0 0 0 0 0.989893374 0 0 0 0 0.520045047 0 0 0 0 0.018873497 0 0 0 1 0"></feColorMatrix></filter><filter height="3.571" id="filter-10" node-id="35" width="2.636" x="-0.818" y="-1.286"><feGaussianBlur color-interpolation-filters="linearRGB" in="SourceGraphic" result="result1" stdDeviation="48 48"></feGaussianBlur></filter><filter height="3.571" id="filter-11" node-id="37" width="2.636" x="-0.818" y="-1.286"><feGaussianBlur color-interpolation-filters="linearRGB" in="SourceGraphic" result="result1" stdDeviation="48 48"></feGaussianBlur></filter><filter height="2.126" id="filter-14" node-id="43" width="1.474" x="-0.237" y="-0.563"><feOffset color-interpolation-filters="linearRGB" dx="0" dy="0" in="SourceAlpha" result="shadowOffsetOuter1"></feOffset><feGaussianBlur color-interpolation-filters="linearRGB" in="shadowOffsetOuter1" result="shadowBlurOuter1" stdDeviation="24 24"></feGaussianBlur><feColorMatrix color-interpolation-filters="linearRGB" in="shadowBlurOuter1" result="result3" type="matrix" values="0 0 0 0 0.888848346 0 0 0 0 0.591702642 0 0 0 0 0.178785883 0 0 0 1 0"></feColorMatrix></filter><filter height="2.126" id="filter-16" node-id="48" width="1.474" x="-0.237" y="-0.563"><feOffset color-interpolation-filters="linearRGB" dx="0" dy="0" in="SourceAlpha" result="shadowOffsetOuter1"></feOffset><feGaussianBlur color-interpolation-filters="linearRGB" in="shadowOffsetOuter1" result="shadowBlurOuter1" stdDeviation="24 24"></feGaussianBlur><feColorMatrix color-interpolation-filters="linearRGB" in="shadowBlurOuter1" result="result3" type="matrix" values="0 0 0 0 0.888848346 0 0 0 0 0.591702642 0 0 0 0 0.178785883 0 0 0 1 0"></feColorMatrix></filter></defs><g node-id="254"><path d="M 0.00 0.00 L 1024.00 0.00 L 1024.00 1024.00 L 0.00 1024.00 Z" fill="none" group-id="1" id="矩形备份-3" node-id="54" stroke="none" target-height="1024" target-width="1024" target-x="0" target-y="0"></path><g node-id="255"><g node-id="256"><g node-id="264"><path d="M 486.86 80.38 L 501.39 80.01 L 515.61 80.27 L 529.55 81.15 L 543.23 82.62 L 556.66 84.70 L 570.09 87.40 L 583.19 90.65 L 595.97 94.44 L 608.43 98.78 L 620.61 103.66 L 632.60 109.13 L 644.22 115.08 L 655.46 121.52 L 666.35 128.45 L 676.90 135.88 L 687.10 143.81 L 696.88 152.17 L 706.23 160.98 L 715.18 170.23 L 723.72 179.95 L 731.78 190.04 L 739.35 200.53 L 746.45 211.42 L 753.09 222.73 L 759.25 234.48 L 771.93 241.14 L 784.32 248.37 L 796.44 256.17 L 808.29 264.56 L 819.76 273.43 L 830.86 282.81 L 841.62 292.71 L 852.03 303.14 L 861.97 313.98 L 871.48 325.27 L 880.55 337.02 L 889.19 349.25 L 895.72 359.27 L 901.91 369.54 L 907.77 380.07 L 913.31 390.86 L 918.52 401.94 L 923.33 413.13 L 927.75 424.55 L 931.79 436.20 L 935.46 448.09 L 938.75 460.22 L 941.58 472.39 L 943.98 484.76 L 945.96 497.34 L 947.49 510.13 L 948.59 523.15 L 949.21 536.09 L 949.35 549.21 L 949.00 562.51 L 948.15 576.03 L 946.80 589.75 L 944.73 605.02 L 942.25 619.76 L 939.35 633.98 L 936.06 647.71 L 932.38 660.96 L 928.32 673.75 L 923.89 686.10 L 918.85 698.61 L 913.45 710.68 L 907.69 722.31 L 901.58 733.52 L 895.10 744.33 L 888.26 754.74 L 881.06 764.78 L 873.39 774.61 L 865.37 784.06 L 857.01 793.15 L 848.29 801.89 L 839.22 810.28 L 829.77 818.32 L 819.95 826.03 L 812.93 831.93 L 805.42 837.71 L 797.40 843.37 L 788.86 848.90 L 779.77 854.32 L 770.76 859.23 L 761.11 864.03 L 750.81 868.70 L 739.80 873.24 L 728.07 877.64 L 716.66 881.52 L 704.46 885.26 L 691.45 888.85 L 677.57 892.28 L 662.79 895.53 L 644.83 898.98 L 625.42 902.15 L 604.45 905.01 L 581.85 907.53 L 560.70 909.39 L 539.95 910.75 L 519.60 911.61 L 499.64 911.98 L 480.05 911.87 L 460.19 911.26 L 440.81 910.15 L 421.90 908.54 L 403.44 906.45 L 385.42 903.89 L 367.22 900.75 L 349.57 897.11 L 332.44 892.98 L 315.82 888.39 L 299.69 883.32 L 286.19 878.59 L 273.10 873.51 L 260.41 868.11 L 248.10 862.37 L 236.16 856.30 L 224.58 849.90 L 213.11 843.00 L 202.06 835.76 L 191.42 828.18 L 181.17 820.25 L 171.30 811.97 L 161.82 803.34 L 152.67 794.30 L 143.95 784.89 L 135.64 775.11 L 127.74 764.93 L 120.23 754.36 L 113.12 743.39 L 106.56 732.22 L 100.43 720.64 L 94.73 708.62 L 89.45 696.15 L 84.61 683.21 L 80.21 669.77 L 76.46 656.48 L 73.16 642.70 L 70.34 628.41 L 67.99 613.58 L 66.15 598.19 L 64.82 582.22 L 64.14 567.09 L 64.03 552.57 L 64.46 538.63 L 65.41 525.24 L 66.86 512.37 L 68.90 499.28 L 71.42 486.70 L 74.40 474.60 L 77.84 462.97 L 81.72 451.78 L 86.18 440.62 L 91.06 429.89 L 96.35 419.54 L 102.05 409.58 L 108.18 399.98 L 114.77 390.63 L 121.74 381.62 L 129.10 372.93 L 136.85 364.56 L 145.01 356.50 L 153.46 348.81 L 162.28 341.41 L 171.46 334.29 L 181.02 327.45 L 190.97 320.88 L 193.90 307.41 L 197.19 294.46 L 200.84 282.03 L 204.83 270.10 L 209.16 258.63 L 213.83 247.62 L 218.81 237.05 L 224.38 226.41 L 230.26 216.20 L 236.44 206.43 L 242.94 197.08 L 249.74 188.13 L 256.85 179.57 L 264.28 171.38 L 273.46 162.18 L 283.02 153.49 L 292.99 145.29 L 303.37 137.58 L 314.17 130.34 L 325.42 123.58 L 336.87 117.40 L 348.72 111.67 L 360.96 106.40 L 373.62 101.59 L 386.72 97.23 L 400.27 93.34 L 413.70 90.05 L 427.52 87.20 L 441.72 84.79 L 456.34 82.85 L 471.38 81.37 L 486.86 80.38 Z" fill="url(#radialGradient-1)" fill-rule="evenodd" group-id="1,2,3,11" node-id="177" stroke="none" target-height="831.9671" target-width="885.3205" target-x="64.03111" target-y="80.01328"></path></g><path d="M 486.86 80.38 L 501.39 80.01 L 515.61 80.27 L 529.55 81.15 L 543.23 82.62 L 556.66 84.70 L 570.09 87.40 L 583.19 90.65 L 595.97 94.44 L 608.43 98.78 L 620.61 103.66 L 632.60 109.13 L 644.22 115.08 L 655.46 121.52 L 666.35 128.45 L 676.90 135.88 L 687.10 143.81 L 696.88 152.17 L 706.23 160.98 L 715.18 170.23 L 723.72 179.95 L 731.78 190.04 L 739.35 200.53 L 746.45 211.42 L 753.09 222.73 L 759.25 234.48 L 771.93 241.14 L 784.32 248.37 L 796.44 256.17 L 808.29 264.56 L 819.76 273.43 L 830.86 282.81 L 841.62 292.71 L 852.03 303.14 L 861.97 313.98 L 871.48 325.27 L 880.55 337.02 L 889.19 349.25 L 895.72 359.27 L 901.91 369.54 L 907.77 380.07 L 913.31 390.86 L 918.52 401.94 L 923.33 413.13 L 927.75 424.55 L 931.79 436.20 L 935.46 448.09 L 938.75 460.22 L 941.58 472.39 L 943.98 484.76 L 945.96 497.34 L 947.49 510.13 L 948.59 523.15 L 949.21 536.09 L 949.35 549.21 L 949.00 562.51 L 948.15 576.03 L 946.80 589.75 L 944.73 605.02 L 942.25 619.76 L 939.35 633.98 L 936.06 647.71 L 932.38 660.96 L 928.32 673.75 L 923.89 686.10 L 918.85 698.61 L 913.45 710.68 L 907.69 722.31 L 901.58 733.52 L 895.10 744.33 L 888.26 754.74 L 881.06 764.78 L 873.39 774.61 L 865.37 784.06 L 857.01 793.15 L 848.29 801.89 L 839.22 810.28 L 829.77 818.32 L 819.95 826.03 L 812.93 831.93 L 805.42 837.71 L 797.40 843.37 L 788.86 848.90 L 779.77 854.32 L 770.76 859.23 L 761.11 864.03 L 750.81 868.70 L 739.80 873.24 L 728.07 877.64 L 716.66 881.52 L 704.46 885.26 L 691.45 888.85 L 677.57 892.28 L 662.79 895.53 L 644.83 898.98 L 625.42 902.15 L 604.45 905.01 L 581.85 907.53 L 560.70 909.39 L 539.95 910.75 L 519.60 911.61 L 499.64 911.98 L 480.05 911.87 L 460.19 911.26 L 440.81 910.15 L 421.90 908.54 L 403.44 906.45 L 385.42 903.89 L 367.22 900.75 L 349.57 897.11 L 332.44 892.98 L 315.82 888.39 L 299.69 883.32 L 286.19 878.59 L 273.10 873.51 L 260.41 868.11 L 248.10 862.37 L 236.16 856.30 L 224.58 849.90 L 213.11 843.00 L 202.06 835.76 L 191.42 828.18 L 181.17 820.25 L 171.30 811.97 L 161.82 803.34 L 152.67 794.30 L 143.95 784.89 L 135.64 775.11 L 127.74 764.93 L 120.23 754.36 L 113.12 743.39 L 106.56 732.22 L 100.43 720.64 L 94.73 708.62 L 89.45 696.15 L 84.61 683.21 L 80.21 669.77 L 76.46 656.48 L 73.16 642.70 L 70.34 628.41 L 67.99 613.58 L 66.15 598.19 L 64.82 582.22 L 64.14 567.09 L 64.03 552.57 L 64.46 538.63 L 65.41 525.24 L 66.86 512.37 L 68.90 499.28 L 71.42 486.70 L 74.40 474.60 L 77.84 462.97 L 81.72 451.78 L 86.18 440.62 L 91.06 429.89 L 96.35 419.54 L 102.05 409.58 L 108.18 399.98 L 114.77 390.63 L 121.74 381.62 L 129.10 372.93 L 136.85 364.56 L 145.01 356.50 L 153.46 348.81 L 162.28 341.41 L 171.46 334.29 L 181.02 327.45 L 190.97 320.88 L 193.90 307.41 L 197.19 294.46 L 200.84 282.03 L 204.83 270.10 L 209.16 258.63 L 213.83 247.62 L 218.81 237.05 L 224.38 226.41 L 230.26 216.20 L 236.44 206.43 L 242.94 197.08 L 249.74 188.13 L 256.85 179.57 L 264.28 171.38 L 273.46 162.18 L 283.02 153.49 L 292.99 145.29 L 303.37 137.58 L 314.17 130.34 L 325.42 123.58 L 336.87 117.40 L 348.72 111.67 L 360.96 106.40 L 373.62 101.59 L 386.72 97.23 L 400.27 93.34 L 413.70 90.05 L 427.52 87.20 L 441.72 84.79 L 456.34 82.85 L 471.38 81.37 L 486.86 80.38 Z" fill="#000000" fill-rule="evenodd" filter="url(#filter-3)" group-id="1,2,3,12" node-id="182" stroke="none" target-height="831.9671" target-width="885.3205" target-x="64.03111" target-y="80.01328"></path></g><g node-id="257"><g node-id="266"><path d="M 353.74 580.19 L 356.46 580.43 L 358.97 581.06 L 361.30 582.09 L 363.45 583.48 L 365.32 585.15 L 366.93 587.13 L 368.20 589.33 L 369.10 591.72 L 369.64 594.33 L 369.74 596.19 L 370.02 599.45 L 370.86 602.57 L 372.29 605.60 L 374.36 608.57 L 377.16 611.52 L 380.12 613.93 L 383.77 616.31 L 388.21 618.65 L 393.56 620.94 L 399.92 623.17 L 407.44 625.27 L 416.31 627.21 L 426.69 628.96 L 438.77 630.46 L 447.62 631.26 L 457.03 631.89 L 467.01 632.35 L 477.55 632.62 L 483.04 632.69 L 494.33 632.69 L 505.20 632.51 L 520.47 631.88 L 529.95 631.24 L 534.48 630.85 L 543.14 629.96 L 554.21 628.43 L 563.82 626.69 L 572.12 624.78 L 579.23 622.72 L 585.22 620.60 L 590.33 618.40 L 594.66 616.16 L 598.28 613.88 L 601.28 611.57 L 604.18 608.76 L 606.43 605.93 L 608.08 603.05 L 609.21 600.10 L 609.83 597.05 L 609.96 595.48 L 610.36 592.58 L 611.21 589.94 L 612.50 587.51 L 614.19 585.34 L 616.17 583.52 L 618.49 582.03 L 621.02 580.96 L 623.72 580.35 L 626.65 580.21 L 629.56 580.61 L 632.20 581.46 L 634.62 582.75 L 636.80 584.44 L 638.61 586.43 L 640.10 588.74 L 641.17 591.27 L 641.78 593.98 L 641.93 596.90 L 641.40 602.60 L 640.39 607.95 L 638.91 612.98 L 636.97 617.73 L 634.56 622.22 L 631.66 626.49 L 628.27 630.53 L 624.00 634.70 L 619.07 638.66 L 613.41 642.41 L 606.97 645.95 L 599.67 649.26 L 591.41 652.31 L 582.03 655.13 L 571.53 657.66 L 559.79 659.86 L 546.72 661.70 L 532.21 663.13 L 521.98 663.83 L 505.81 664.50 L 494.49 664.69 L 482.95 664.69 L 471.83 664.50 L 461.12 664.12 L 450.84 663.54 L 440.89 662.75 L 431.57 661.78 L 422.59 660.60 L 411.13 658.68 L 400.82 656.45 L 391.57 653.95 L 383.29 651.20 L 375.91 648.23 L 369.53 645.14 L 363.88 641.87 L 358.89 638.41 L 354.51 634.78 L 350.69 630.96 L 347.40 626.97 L 344.49 622.58 L 342.10 617.94 L 340.23 613.01 L 338.87 607.77 L 338.04 602.18 L 337.74 596.19 L 338.01 593.27 L 338.74 590.60 L 339.93 588.12 L 341.52 585.87 L 343.42 583.97 L 345.67 582.38 L 348.15 581.20 L 350.82 580.47 L 353.74 580.19 Z" fill="#ed1f2a" fill-rule="nonzero" group-id="1,2,4,13" node-id="189" stroke="none" target-height="84.50018" target-width="304.1832" target-x="337.7429" target-y="580.1938"></path></g><path d="M 353.74 580.19 L 356.46 580.43 L 358.97 581.06 L 361.30 582.09 L 363.45 583.48 L 365.32 585.15 L 366.93 587.13 L 368.20 589.33 L 369.10 591.72 L 369.64 594.33 L 369.74 596.19 L 370.02 599.45 L 370.86 602.57 L 372.29 605.60 L 374.36 608.57 L 377.16 611.52 L 380.12 613.93 L 383.77 616.31 L 388.21 618.65 L 393.56 620.94 L 399.92 623.17 L 407.44 625.27 L 416.31 627.21 L 426.69 628.96 L 438.77 630.46 L 447.62 631.26 L 457.03 631.89 L 467.01 632.35 L 477.55 632.62 L 483.04 632.69 L 494.33 632.69 L 505.20 632.51 L 520.47 631.88 L 529.95 631.24 L 534.48 630.85 L 543.14 629.96 L 554.21 628.43 L 563.82 626.69 L 572.12 624.78 L 579.23 622.72 L 585.22 620.60 L 590.33 618.40 L 594.66 616.16 L 598.28 613.88 L 601.28 611.57 L 604.18 608.76 L 606.43 605.93 L 608.08 603.05 L 609.21 600.10 L 609.83 597.05 L 609.96 595.48 L 610.36 592.58 L 611.21 589.94 L 612.50 587.51 L 614.19 585.34 L 616.17 583.52 L 618.49 582.03 L 621.02 580.96 L 623.72 580.35 L 626.65 580.21 L 629.56 580.61 L 632.20 581.46 L 634.62 582.75 L 636.80 584.44 L 638.61 586.43 L 640.10 588.74 L 641.17 591.27 L 641.78 593.98 L 641.93 596.90 L 641.40 602.60 L 640.39 607.95 L 638.91 612.98 L 636.97 617.73 L 634.56 622.22 L 631.66 626.49 L 628.27 630.53 L 624.00 634.70 L 619.07 638.66 L 613.41 642.41 L 606.97 645.95 L 599.67 649.26 L 591.41 652.31 L 582.03 655.13 L 571.53 657.66 L 559.79 659.86 L 546.72 661.70 L 532.21 663.13 L 521.98 663.83 L 505.81 664.50 L 494.49 664.69 L 482.95 664.69 L 471.83 664.50 L 461.12 664.12 L 450.84 663.54 L 440.89 662.75 L 431.57 661.78 L 422.59 660.60 L 411.13 658.68 L 400.82 656.45 L 391.57 653.95 L 383.29 651.20 L 375.91 648.23 L 369.53 645.14 L 363.88 641.87 L 358.89 638.41 L 354.51 634.78 L 350.69 630.96 L 347.40 626.97 L 344.49 622.58 L 342.10 617.94 L 340.23 613.01 L 338.87 607.77 L 338.04 602.18 L 337.74 596.19 L 338.01 593.27 L 338.74 590.60 L 339.93 588.12 L 341.52 585.87 L 343.42 583.97 L 345.67 582.38 L 348.15 581.20 L 350.82 580.47 L 353.74 580.19 Z" fill="#000000" fill-rule="nonzero" filter="url(#filter-5)" group-id="1,2,4,14" node-id="194" stroke="none" target-height="84.50018" target-width="304.1832" target-x="337.7429" target-y="580.1938"></path></g><g node-id="258"><g node-id="268"><path d="M 625.51 779.37 L 592.62 776.27 L 564.63 774.18 L 541.02 772.96 L 521.29 772.49 L 504.99 772.63 L 491.69 773.28 L 480.98 774.34 L 472.50 775.71 L 465.90 777.30 L 460.87 779.05 L 457.13 780.89 L 454.43 782.80 L 452.57 784.76 L 451.38 786.79 L 450.78 788.92 L 450.73 791.24 L 451.29 793.82 L 452.30 796.16 L 453.90 798.77 L 456.20 801.70 L 459.34 804.99 L 463.69 808.93 L 469.05 813.24 L 475.55 817.96 L 485.80 824.74 L 497.80 832.02 L 510.38 839.16 L 523.96 846.48 L 537.83 853.62 L 551.92 860.63 L 566.01 867.42 L 579.54 873.77 L 604.72 885.21 L 625.33 894.25 L 639.26 900.19 L 644.37 902.32 L 648.79 904.25 L 661.01 909.15 L 669.23 912.18 L 679.45 915.67 L 690.30 919.05 L 702.57 922.46 L 715.27 925.52 L 728.79 928.19 L 737.93 929.63 L 747.18 930.73 L 756.54 931.49 L 765.91 931.84 L 775.15 931.68 L 784.27 931.04 L 791.08 930.18 L 797.70 928.97 L 804.13 927.40 L 810.40 925.48 L 816.53 923.13 L 822.39 920.35 L 828.00 917.13 L 833.37 913.46 L 846.90 903.29 L 860.67 892.74 L 874.24 881.85 L 887.36 870.55 L 895.80 862.70 L 903.73 854.64 L 911.19 846.37 L 916.48 839.90 L 921.36 833.29 L 925.81 826.54 L 929.87 819.64 L 933.49 812.50 L 936.57 805.16 L 939.12 797.61 L 941.15 789.83 L 942.31 783.57 L 943.07 777.11 L 943.40 770.44 L 943.30 763.54 L 942.75 756.39 L 941.77 749.51 L 940.28 742.33 L 938.25 734.83 L 935.64 726.99 L 932.40 718.79 L 924.05 699.57 L 917.04 683.85 L 904.88 657.38 L 895.62 637.33 L 891.89 628.84 L 888.96 621.64 L 886.46 614.68 L 884.58 608.26 L 883.15 601.82 L 882.17 595.13 L 881.63 588.20 L 881.44 580.19 L 881.23 570.47 L 880.57 560.54 L 879.41 550.67 L 877.75 541.12 L 876.31 534.85 L 874.63 528.96 L 872.73 523.43 L 870.46 518.04 L 867.95 513.23 L 865.21 508.95 L 862.86 505.93 L 860.36 503.32 L 857.72 501.07 L 854.93 499.18 L 851.93 497.64 L 848.73 496.53 L 845.30 495.84 L 841.60 495.59 L 838.91 495.90 L 836.36 496.73 L 833.89 498.12 L 831.48 500.12 L 828.70 503.25 L 826.00 507.23 L 823.38 512.18 L 821.15 517.32 L 819.05 523.07 L 817.07 529.48 L 814.54 539.29 L 812.33 549.72 L 810.48 560.27 L 808.94 570.61 L 807.66 580.76 L 806.68 589.85 L 805.31 605.15 L 804.63 614.20 L 804.32 615.12 L 803.61 615.89 L 802.34 616.54 L 800.29 617.01 L 795.84 617.33 L 789.06 617.19 L 772.44 616.18 L 762.78 615.69 L 751.95 615.43 L 740.83 615.59 L 729.09 616.37 L 721.24 617.29 L 713.34 618.64 L 705.39 620.43 L 697.58 622.72 L 689.91 625.59 L 682.37 629.07 L 676.93 632.07 L 671.65 635.50 L 666.51 639.37 L 661.52 643.71 L 656.92 648.35 L 652.53 653.55 L 648.34 659.35 L 644.37 665.79 L 637.52 678.51 L 631.81 690.22 L 627.14 700.98 L 623.42 710.88 L 620.55 719.97 L 618.47 728.32 L 617.09 735.99 L 616.36 743.03 L 616.20 749.52 L 616.58 755.49 L 617.45 761.01 L 618.80 766.12 L 620.59 770.85 L 622.82 775.26 L 625.51 779.37 Z" fill="#000000" fill-rule="evenodd" filter="url(#filter-8)" group-id="1,2,5,15" node-id="201" stroke="none" target-height="436.24915" target-width="492.6716" target-x="450.72855" target-y="495.58618"></path></g><g node-id="269"><path d="M 625.51 779.37 L 592.62 776.27 L 564.63 774.18 L 541.02 772.96 L 521.29 772.49 L 504.99 772.63 L 491.69 773.28 L 480.98 774.34 L 472.50 775.71 L 465.90 777.30 L 460.87 779.05 L 457.13 780.89 L 454.43 782.80 L 452.57 784.76 L 451.38 786.79 L 450.78 788.92 L 450.73 791.24 L 451.29 793.82 L 452.30 796.16 L 453.90 798.77 L 456.20 801.70 L 459.34 804.99 L 463.69 808.93 L 469.05 813.24 L 475.55 817.96 L 485.80 824.74 L 497.80 832.02 L 510.38 839.16 L 523.96 846.48 L 537.83 853.62 L 551.92 860.63 L 566.01 867.42 L 579.54 873.77 L 604.72 885.21 L 625.33 894.25 L 639.26 900.19 L 644.37 902.32 L 648.79 904.25 L 661.01 909.15 L 669.23 912.18 L 679.45 915.67 L 690.30 919.05 L 702.57 922.46 L 715.27 925.52 L 728.79 928.19 L 737.93 929.63 L 747.18 930.73 L 756.54 931.49 L 765.91 931.84 L 775.15 931.68 L 784.27 931.04 L 791.08 930.18 L 797.70 928.97 L 804.13 927.40 L 810.40 925.48 L 816.53 923.13 L 822.39 920.35 L 828.00 917.13 L 833.37 913.46 L 846.90 903.29 L 860.67 892.74 L 874.24 881.85 L 887.36 870.55 L 895.80 862.70 L 903.73 854.64 L 911.19 846.37 L 916.48 839.90 L 921.36 833.29 L 925.81 826.54 L 929.87 819.64 L 933.49 812.50 L 936.57 805.16 L 939.12 797.61 L 941.15 789.83 L 942.31 783.57 L 943.07 777.11 L 943.40 770.44 L 943.30 763.54 L 942.75 756.39 L 941.77 749.51 L 940.28 742.33 L 938.25 734.83 L 935.64 726.99 L 932.40 718.79 L 924.05 699.57 L 917.04 683.85 L 904.88 657.38 L 895.62 637.33 L 891.89 628.84 L 888.96 621.64 L 886.46 614.68 L 884.58 608.26 L 883.15 601.82 L 882.17 595.13 L 881.63 588.20 L 881.44 580.19 L 881.23 570.47 L 880.57 560.54 L 879.41 550.67 L 877.75 541.12 L 876.31 534.85 L 874.63 528.96 L 872.73 523.43 L 870.46 518.04 L 867.95 513.23 L 865.21 508.95 L 862.86 505.93 L 860.36 503.32 L 857.72 501.07 L 854.93 499.18 L 851.93 497.64 L 848.73 496.53 L 845.30 495.84 L 841.60 495.59 L 838.91 495.90 L 836.36 496.73 L 833.89 498.12 L 831.48 500.12 L 828.70 503.25 L 826.00 507.23 L 823.38 512.18 L 821.15 517.32 L 819.05 523.07 L 817.07 529.48 L 814.54 539.29 L 812.33 549.72 L 810.48 560.27 L 808.94 570.61 L 807.66 580.76 L 806.68 589.85 L 805.31 605.15 L 804.63 614.20 L 804.32 615.12 L 803.61 615.89 L 802.34 616.54 L 800.29 617.01 L 795.84 617.33 L 789.06 617.19 L 772.44 616.18 L 762.78 615.69 L 751.95 615.43 L 740.83 615.59 L 729.09 616.37 L 721.24 617.29 L 713.34 618.64 L 705.39 620.43 L 697.58 622.72 L 689.91 625.59 L 682.37 629.07 L 676.93 632.07 L 671.65 635.50 L 666.51 639.37 L 661.52 643.71 L 656.92 648.35 L 652.53 653.55 L 648.34 659.35 L 644.37 665.79 L 637.52 678.51 L 631.81 690.22 L 627.14 700.98 L 623.42 710.88 L 620.55 719.97 L 618.47 728.32 L 617.09 735.99 L 616.36 743.03 L 616.20 749.52 L 616.58 755.49 L 617.45 761.01 L 618.80 766.12 L 620.59 770.85 L 622.82 775.26 L 625.51 779.37 Z" fill="url(#linearGradient-6)" fill-rule="evenodd" group-id="1,2,5,16" node-id="206" stroke="none" target-height="436.24915" target-width="492.6716" target-x="450.72855" target-y="495.58618"></path></g><path d="M 625.51 779.37 L 592.62 776.27 L 564.63 774.18 L 541.02 772.96 L 521.29 772.49 L 504.99 772.63 L 491.69 773.28 L 480.98 774.34 L 472.50 775.71 L 465.90 777.30 L 460.87 779.05 L 457.13 780.89 L 454.43 782.80 L 452.57 784.76 L 451.38 786.79 L 450.78 788.92 L 450.73 791.24 L 451.29 793.82 L 452.30 796.16 L 453.90 798.77 L 456.20 801.70 L 459.34 804.99 L 463.69 808.93 L 469.05 813.24 L 475.55 817.96 L 485.80 824.74 L 497.80 832.02 L 510.38 839.16 L 523.96 846.48 L 537.83 853.62 L 551.92 860.63 L 566.01 867.42 L 579.54 873.77 L 604.72 885.21 L 625.33 894.25 L 639.26 900.19 L 644.37 902.32 L 648.79 904.25 L 661.01 909.15 L 669.23 912.18 L 679.45 915.67 L 690.30 919.05 L 702.57 922.46 L 715.27 925.52 L 728.79 928.19 L 737.93 929.63 L 747.18 930.73 L 756.54 931.49 L 765.91 931.84 L 775.15 931.68 L 784.27 931.04 L 791.08 930.18 L 797.70 928.97 L 804.13 927.40 L 810.40 925.48 L 816.53 923.13 L 822.39 920.35 L 828.00 917.13 L 833.37 913.46 L 846.90 903.29 L 860.67 892.74 L 874.24 881.85 L 887.36 870.55 L 895.80 862.70 L 903.73 854.64 L 911.19 846.37 L 916.48 839.90 L 921.36 833.29 L 925.81 826.54 L 929.87 819.64 L 933.49 812.50 L 936.57 805.16 L 939.12 797.61 L 941.15 789.83 L 942.31 783.57 L 943.07 777.11 L 943.40 770.44 L 943.30 763.54 L 942.75 756.39 L 941.77 749.51 L 940.28 742.33 L 938.25 734.83 L 935.64 726.99 L 932.40 718.79 L 924.05 699.57 L 917.04 683.85 L 904.88 657.38 L 895.62 637.33 L 891.89 628.84 L 888.96 621.64 L 886.46 614.68 L 884.58 608.26 L 883.15 601.82 L 882.17 595.13 L 881.63 588.20 L 881.44 580.19 L 881.23 570.47 L 880.57 560.54 L 879.41 550.67 L 877.75 541.12 L 876.31 534.85 L 874.63 528.96 L 872.73 523.43 L 870.46 518.04 L 867.95 513.23 L 865.21 508.95 L 862.86 505.93 L 860.36 503.32 L 857.72 501.07 L 854.93 499.18 L 851.93 497.64 L 848.73 496.53 L 845.30 495.84 L 841.60 495.59 L 838.91 495.90 L 836.36 496.73 L 833.89 498.12 L 831.48 500.12 L 828.70 503.25 L 826.00 507.23 L 823.38 512.18 L 821.15 517.32 L 819.05 523.07 L 817.07 529.48 L 814.54 539.29 L 812.33 549.72 L 810.48 560.27 L 808.94 570.61 L 807.66 580.76 L 806.68 589.85 L 805.31 605.15 L 804.63 614.20 L 804.32 615.12 L 803.61 615.89 L 802.34 616.54 L 800.29 617.01 L 795.84 617.33 L 789.06 617.19 L 772.44 616.18 L 762.78 615.69 L 751.95 615.43 L 740.83 615.59 L 729.09 616.37 L 721.24 617.29 L 713.34 618.64 L 705.39 620.43 L 697.58 622.72 L 689.91 625.59 L 682.37 629.07 L 676.93 632.07 L 671.65 635.50 L 666.51 639.37 L 661.52 643.71 L 656.92 648.35 L 652.53 653.55 L 648.34 659.35 L 644.37 665.79 L 637.52 678.51 L 631.81 690.22 L 627.14 700.98 L 623.42 710.88 L 620.55 719.97 L 618.47 728.32 L 617.09 735.99 L 616.36 743.03 L 616.20 749.52 L 616.58 755.49 L 617.45 761.01 L 618.80 766.12 L 620.59 770.85 L 622.82 775.26 L 625.51 779.37 Z" fill="#000000" fill-rule="evenodd" filter="url(#filter-9)" group-id="1,2,5,17" node-id="211" stroke="none" target-height="436.24915" target-width="492.6716" target-x="450.72855" target-y="495.58618"></path></g><g node-id="259"><path d="M 568.64 144.32 L 572.04 142.97 L 574.40 142.40 L 578.88 142.08 L 585.61 142.32 L 591.92 143.02 L 597.84 144.16 L 603.40 145.71 L 608.64 147.68 L 613.79 150.13 L 618.57 152.92 L 623.00 156.05 L 627.10 159.53 L 630.88 163.36 L 634.31 167.49 L 637.41 171.95 L 640.19 176.75 L 642.66 181.94 L 644.80 187.52 L 646.50 193.14 L 647.83 199.00 L 648.81 205.12 L 649.40 211.53 L 649.60 218.24 L 649.30 225.23 L 648.41 232.16 L 646.91 239.05 L 644.80 245.92 L 642.69 251.28 L 640.25 256.38 L 637.47 261.23 L 634.35 265.85 L 630.88 270.24 L 627.10 274.34 L 622.98 278.12 L 618.52 281.60 L 613.70 284.79 L 608.48 287.68 L 603.13 290.06 L 597.50 291.93 L 591.55 293.29 L 585.25 294.12 L 578.56 294.40 L 571.70 294.13 L 565.31 293.35 L 559.37 292.08 L 553.82 290.35 L 548.64 288.16 L 543.56 285.46 L 538.87 282.43 L 534.54 279.08 L 530.55 275.39 L 526.88 271.36 L 523.55 267.04 L 520.55 262.47 L 517.86 257.62 L 515.49 252.49 L 513.44 247.04 L 511.42 240.11 L 509.97 233.02 L 509.09 225.74 L 508.80 218.24 L 509.01 210.29 L 509.66 202.18 L 510.76 193.90 L 512.32 185.44 L 514.25 177.10 L 516.55 168.80 L 519.21 160.54 L 522.24 152.32 L 525.61 144.24 L 529.32 136.35 L 533.37 128.65 L 537.76 121.12 L 542.50 113.79 L 547.51 106.79 L 552.81 100.12 L 558.40 93.76 L 566.02 85.89 L 572.47 79.72 L 577.89 75.00 L 582.40 71.52 L 587.64 68.08 L 591.69 66.00 L 594.77 64.94 L 597.12 64.64 L 600.26 64.89 L 603.18 65.64 L 605.92 66.88 L 608.47 68.52 L 610.76 70.44 L 612.80 72.64 L 614.67 75.32 L 615.99 78.04 L 616.80 80.81 L 617.12 83.68 L 616.96 85.93 L 616.35 88.06 L 615.28 90.11 L 613.70 92.11 L 611.52 94.08 L 605.22 98.88 L 599.29 103.86 L 593.71 109.03 L 588.48 114.40 L 584.70 118.78 L 580.82 123.88 L 576.85 129.79 L 572.79 136.57 L 568.64 144.32 Z M 578.56 258.56 L 582.38 258.33 L 585.89 257.66 L 589.14 256.56 L 592.16 255.04 L 595.91 252.46 L 599.26 249.43 L 602.24 245.92 L 604.77 242.06 L 606.91 237.80 L 608.64 233.12 L 609.88 228.28 L 610.63 223.33 L 610.88 218.24 L 610.60 211.42 L 609.82 205.46 L 608.58 200.25 L 606.95 195.71 L 604.93 191.75 L 602.56 188.32 L 600.07 185.59 L 597.33 183.30 L 594.32 181.41 L 591.01 179.93 L 587.37 178.83 L 583.34 178.16 L 578.88 177.92 L 574.41 178.16 L 570.39 178.84 L 566.78 179.94 L 563.53 181.43 L 560.58 183.31 L 557.92 185.60 L 555.52 188.32 L 553.25 191.74 L 551.31 195.68 L 549.74 200.22 L 548.55 205.43 L 547.79 211.40 L 547.52 218.24 L 547.75 223.33 L 548.45 228.28 L 549.60 233.12 L 551.23 237.81 L 553.26 242.06 L 555.68 245.92 L 558.56 249.44 L 561.80 252.47 L 565.44 255.04 L 568.38 256.56 L 571.53 257.66 L 574.91 258.33 L 578.56 258.56 Z" fill="#f93a48" fill-rule="nonzero" group-id="1,2,6" id="形状" node-id="67" stroke="none" target-height="229.76" target-width="140.79999" target-x="508.8" target-y="64.64"></path><path d="M 735.04 144.32 L 738.44 142.97 L 740.80 142.40 L 745.28 142.08 L 752.01 142.32 L 758.32 143.02 L 764.24 144.16 L 769.80 145.71 L 775.04 147.68 L 780.19 150.13 L 784.97 152.92 L 789.40 156.05 L 793.50 159.53 L 797.28 163.36 L 800.71 167.49 L 803.81 171.95 L 806.59 176.75 L 809.06 181.94 L 811.20 187.52 L 812.90 193.14 L 814.23 199.00 L 815.21 205.12 L 815.80 211.53 L 816.00 218.24 L 815.70 225.23 L 814.81 232.16 L 813.31 239.05 L 811.20 245.92 L 809.09 251.28 L 806.65 256.38 L 803.87 261.23 L 800.75 265.85 L 797.28 270.24 L 793.50 274.34 L 789.38 278.12 L 784.92 281.60 L 780.10 284.79 L 774.88 287.68 L 769.53 290.06 L 763.90 291.93 L 757.95 293.29 L 751.65 294.12 L 744.96 294.40 L 738.10 294.13 L 731.71 293.35 L 725.77 292.08 L 720.22 290.35 L 715.04 288.16 L 709.96 285.46 L 705.27 282.43 L 700.94 279.08 L 696.95 275.39 L 693.28 271.36 L 689.95 267.04 L 686.95 262.47 L 684.26 257.62 L 681.89 252.49 L 679.84 247.04 L 677.82 240.11 L 676.37 233.02 L 675.49 225.74 L 675.20 218.24 L 675.41 210.29 L 676.06 202.18 L 677.16 193.90 L 678.72 185.44 L 680.65 177.10 L 682.95 168.80 L 685.61 160.54 L 688.64 152.32 L 692.01 144.24 L 695.72 136.35 L 699.77 128.65 L 704.16 121.12 L 708.90 113.79 L 713.91 106.79 L 719.21 100.12 L 724.80 93.76 L 732.42 85.89 L 738.87 79.72 L 744.29 75.00 L 748.80 71.52 L 754.05 68.08 L 758.09 66.00 L 761.17 64.94 L 763.52 64.64 L 766.66 64.89 L 769.58 65.64 L 772.32 66.88 L 774.87 68.52 L 777.16 70.44 L 779.20 72.64 L 781.07 75.32 L 782.39 78.04 L 783.20 80.81 L 783.52 83.68 L 783.36 85.93 L 782.75 88.06 L 781.68 90.11 L 780.10 92.11 L 777.92 94.08 L 771.62 98.88 L 765.69 103.86 L 760.11 109.03 L 754.88 114.40 L 751.10 118.78 L 747.22 123.88 L 743.25 129.79 L 739.19 136.57 L 735.04 144.32 Z M 744.96 258.56 L 748.78 258.33 L 752.29 257.66 L 755.54 256.56 L 758.56 255.04 L 762.31 252.46 L 765.66 249.43 L 768.64 245.92 L 771.17 242.06 L 773.31 237.80 L 775.04 233.12 L 776.28 228.28 L 777.03 223.33 L 777.28 218.24 L 777.00 211.42 L 776.22 205.46 L 774.98 200.25 L 773.35 195.71 L 771.33 191.75 L 768.96 188.32 L 766.47 185.59 L 763.73 183.30 L 760.72 181.41 L 757.41 179.93 L 753.77 178.83 L 749.74 178.16 L 745.28 177.92 L 740.81 178.16 L 736.79 178.84 L 733.18 179.94 L 729.93 181.43 L 726.98 183.31 L 724.32 185.60 L 721.92 188.32 L 719.65 191.74 L 717.71 195.68 L 716.14 200.22 L 714.95 205.43 L 714.19 211.40 L 713.92 218.24 L 714.15 223.33 L 714.85 228.28 L 716.00 233.12 L 717.63 237.81 L 719.66 242.06 L 722.08 245.92 L 724.96 249.44 L 728.20 252.47 L 731.84 255.04 L 734.78 256.56 L 737.93 257.66 L 741.31 258.33 L 744.96 258.56 Z" fill="#f93a48" fill-rule="nonzero" group-id="1,2,6" id="形状" node-id="68" stroke="none" target-height="229.76" target-width="140.80005" target-x="675.19995" target-y="64.64"></path><path d="M 901.44 144.32 L 904.84 142.97 L 907.20 142.40 L 911.68 142.08 L 918.41 142.32 L 924.72 143.02 L 930.64 144.16 L 936.20 145.71 L 941.44 147.68 L 946.59 150.13 L 951.37 152.92 L 955.80 156.05 L 959.90 159.53 L 963.68 163.36 L 967.11 167.49 L 970.21 171.95 L 972.99 176.75 L 975.46 181.94 L 977.60 187.52 L 979.30 193.14 L 980.63 199.00 L 981.61 205.12 L 982.20 211.53 L 982.40 218.24 L 982.10 225.23 L 981.21 232.16 L 979.71 239.05 L 977.60 245.92 L 975.49 251.28 L 973.05 256.38 L 970.27 261.23 L 967.15 265.85 L 963.68 270.24 L 959.90 274.34 L 955.78 278.12 L 951.32 281.60 L 946.50 284.79 L 941.28 287.68 L 935.93 290.06 L 930.30 291.93 L 924.35 293.29 L 918.05 294.12 L 911.36 294.40 L 904.50 294.13 L 898.11 293.35 L 892.17 292.08 L 886.62 290.35 L 881.44 288.16 L 876.36 285.46 L 871.67 282.43 L 867.34 279.08 L 863.35 275.39 L 859.68 271.36 L 856.35 267.04 L 853.35 262.47 L 850.66 257.62 L 848.29 252.49 L 846.24 247.04 L 844.22 240.11 L 842.77 233.02 L 841.89 225.74 L 841.60 218.24 L 841.81 210.29 L 842.46 202.18 L 843.56 193.90 L 845.12 185.44 L 847.05 177.10 L 849.35 168.80 L 852.01 160.54 L 855.04 152.32 L 858.41 144.24 L 862.12 136.35 L 866.17 128.65 L 870.56 121.12 L 875.30 113.79 L 880.31 106.79 L 885.61 100.12 L 891.20 93.76 L 898.82 85.89 L 905.27 79.72 L 910.69 75.00 L 915.20 71.52 L 920.45 68.08 L 924.49 66.00 L 927.57 64.94 L 929.92 64.64 L 933.06 64.89 L 935.98 65.64 L 938.72 66.88 L 941.27 68.52 L 943.56 70.44 L 945.60 72.64 L 947.47 75.32 L 948.79 78.04 L 949.60 80.81 L 949.92 83.68 L 949.76 85.93 L 949.15 88.06 L 948.08 90.11 L 946.50 92.11 L 944.32 94.08 L 938.02 98.88 L 932.09 103.86 L 926.51 109.03 L 921.28 114.40 L 917.50 118.78 L 913.62 123.88 L 909.65 129.79 L 905.59 136.57 L 901.44 144.32 Z M 911.36 258.56 L 915.18 258.33 L 918.69 257.66 L 921.94 256.56 L 924.96 255.04 L 928.71 252.46 L 932.06 249.43 L 935.04 245.92 L 937.57 242.06 L 939.71 237.80 L 941.44 233.12 L 942.68 228.28 L 943.43 223.33 L 943.68 218.24 L 943.40 211.42 L 942.62 205.46 L 941.38 200.25 L 939.75 195.71 L 937.73 191.75 L 935.36 188.32 L 932.87 185.59 L 930.13 183.30 L 927.12 181.41 L 923.81 179.93 L 920.17 178.83 L 916.14 178.16 L 911.68 177.92 L 907.21 178.16 L 903.19 178.84 L 899.58 179.94 L 896.33 181.43 L 893.38 183.31 L 890.72 185.60 L 888.32 188.32 L 886.05 191.74 L 884.11 195.68 L 882.54 200.22 L 881.35 205.43 L 880.59 211.40 L 880.32 218.24 L 880.55 223.33 L 881.25 228.28 L 882.40 233.12 L 884.03 237.81 L 886.06 242.06 L 888.48 245.92 L 891.36 249.44 L 894.60 252.47 L 898.24 255.04 L 901.18 256.56 L 904.33 257.66 L 907.71 258.33 L 911.36 258.56 Z" fill="#f93a48" fill-rule="nonzero" group-id="1,2,6" id="形状" node-id="69" stroke="none" target-height="229.76" target-width="140.80005" target-x="841.6" target-y="64.64"></path></g><g node-id="260"><path d="M 832.00 544.00 L 831.70 548.60 L 830.85 553.06 L 829.47 557.42 L 827.51 561.70 L 825.13 565.72 L 822.27 569.62 L 818.91 573.40 L 815.02 577.07 L 810.91 580.38 L 806.38 583.50 L 801.41 586.44 L 795.97 589.20 L 790.45 591.57 L 784.60 593.70 L 778.40 595.56 L 771.81 597.15 L 765.24 598.36 L 758.42 599.25 L 751.34 599.80 L 744.00 600.00 L 736.66 599.80 L 729.58 599.25 L 722.76 598.36 L 716.19 597.15 L 709.60 595.56 L 703.40 593.70 L 697.55 591.57 L 692.03 589.20 L 686.59 586.44 L 681.62 583.50 L 677.09 580.38 L 672.98 577.07 L 669.09 573.40 L 665.73 569.62 L 662.87 565.72 L 660.49 561.70 L 658.53 557.42 L 657.15 553.06 L 656.30 548.60 L 656.00 544.00 L 656.30 539.40 L 657.15 534.94 L 658.53 530.58 L 660.49 526.30 L 662.87 522.28 L 665.73 518.38 L 669.09 514.60 L 672.98 510.93 L 677.09 507.62 L 681.62 504.50 L 686.59 501.56 L 692.03 498.80 L 697.55 496.43 L 703.40 494.30 L 709.60 492.44 L 716.19 490.85 L 722.76 489.64 L 729.58 488.75 L 736.66 488.20 L 744.00 488.00 L 751.34 488.20 L 758.42 488.75 L 765.24 489.64 L 771.81 490.85 L 778.40 492.44 L 784.60 494.30 L 790.45 496.43 L 795.97 498.80 L 801.41 501.56 L 806.38 504.50 L 810.91 507.62 L 815.02 510.93 L 818.91 514.60 L 822.27 518.38 L 825.13 522.28 L 827.51 526.30 L 829.47 530.58 L 830.85 534.94 L 831.70 539.40 L 832.00 544.00 Z" fill="#ff5ea4" fill-opacity="0.8" fill-rule="evenodd" filter="url(#filter-10)" group-id="1,2,7" id="椭圆形" node-id="70" stroke="none" target-height="112" target-width="176" target-x="656" target-y="488"></path></g><g node-id="261"><path d="M 368.00 544.00 L 367.70 548.60 L 366.85 553.06 L 365.47 557.42 L 363.51 561.70 L 361.13 565.72 L 358.27 569.62 L 354.91 573.40 L 351.02 577.07 L 346.91 580.38 L 342.38 583.50 L 337.41 586.44 L 331.97 589.20 L 326.45 591.57 L 320.60 593.70 L 314.40 595.56 L 307.81 597.15 L 301.24 598.36 L 294.42 599.25 L 287.34 599.80 L 280.00 600.00 L 272.66 599.80 L 265.58 599.25 L 258.76 598.36 L 252.19 597.15 L 245.60 595.56 L 239.40 593.70 L 233.55 591.57 L 228.03 589.20 L 222.59 586.44 L 217.62 583.50 L 213.09 580.38 L 208.98 577.07 L 205.09 573.40 L 201.73 569.62 L 198.87 565.72 L 196.49 561.70 L 194.53 557.42 L 193.15 553.06 L 192.30 548.60 L 192.00 544.00 L 192.30 539.40 L 193.15 534.94 L 194.53 530.58 L 196.49 526.30 L 198.87 522.28 L 201.73 518.38 L 205.09 514.60 L 208.98 510.93 L 213.09 507.62 L 217.62 504.50 L 222.59 501.56 L 228.03 498.80 L 233.55 496.43 L 239.40 494.30 L 245.60 492.44 L 252.19 490.85 L 258.76 489.64 L 265.58 488.75 L 272.66 488.20 L 280.00 488.00 L 287.34 488.20 L 294.42 488.75 L 301.24 489.64 L 307.81 490.85 L 314.40 492.44 L 320.60 494.30 L 326.45 496.43 L 331.97 498.80 L 337.41 501.56 L 342.38 504.50 L 346.91 507.62 L 351.02 510.93 L 354.91 514.60 L 358.27 518.38 L 361.13 522.28 L 363.51 526.30 L 365.47 530.58 L 366.85 534.94 L 367.70 539.40 L 368.00 544.00 Z" fill="#ff5ea4" fill-opacity="0.8" fill-rule="evenodd" filter="url(#filter-11)" group-id="1,2,8" id="椭圆形备份-6" node-id="71" stroke="none" target-height="112" target-width="176" target-x="192" target-y="488"></path></g><g node-id="262"><g node-id="271"><g node-id="273"><path d="M 144.00 416.72 L 448.00 416.72 L 445.14 429.03 L 441.87 440.50 L 438.20 451.18 L 434.17 461.11 L 429.77 470.34 L 425.04 478.91 L 419.96 486.85 L 414.54 494.21 L 408.79 501.02 L 402.70 507.29 L 396.25 513.06 L 389.44 518.33 L 382.25 523.13 L 374.65 527.47 L 366.63 531.33 L 358.16 534.73 L 349.21 537.66 L 339.74 540.10 L 329.73 542.05 L 319.12 543.47 L 307.90 544.34 L 296.00 544.64 L 284.10 544.34 L 272.88 543.47 L 262.27 542.05 L 252.26 540.10 L 242.79 537.66 L 233.84 534.73 L 225.37 531.33 L 217.35 527.47 L 209.75 523.13 L 202.56 518.33 L 195.75 513.06 L 189.30 507.29 L 183.21 501.02 L 177.46 494.21 L 172.04 486.85 L 166.96 478.91 L 162.23 470.34 L 157.83 461.11 L 153.80 451.18 L 150.13 440.50 L 146.86 429.03 L 144.00 416.72 Z" fill="#000000" fill-rule="evenodd" filter="url(#filter-14)" group-id="1,2,9,18,20" node-id="232" stroke="none" target-height="127.91574" target-width="304" target-x="144" target-y="416.72427"></path></g><path d="M 144.00 416.72 L 448.00 416.72 L 445.14 429.03 L 441.87 440.50 L 438.20 451.18 L 434.17 461.11 L 429.77 470.34 L 425.04 478.91 L 419.96 486.85 L 414.54 494.21 L 408.79 501.02 L 402.70 507.29 L 396.25 513.06 L 389.44 518.33 L 382.25 523.13 L 374.65 527.47 L 366.63 531.33 L 358.16 534.73 L 349.21 537.66 L 339.74 540.10 L 329.73 542.05 L 319.12 543.47 L 307.90 544.34 L 296.00 544.64 L 284.10 544.34 L 272.88 543.47 L 262.27 542.05 L 252.26 540.10 L 242.79 537.66 L 233.84 534.73 L 225.37 531.33 L 217.35 527.47 L 209.75 523.13 L 202.56 518.33 L 195.75 513.06 L 189.30 507.29 L 183.21 501.02 L 177.46 494.21 L 172.04 486.85 L 166.96 478.91 L 162.23 470.34 L 157.83 461.11 L 153.80 451.18 L 150.13 440.50 L 146.86 429.03 L 144.00 416.72 Z" fill="url(#linearGradient-12)" fill-rule="evenodd" group-id="1,2,9,18,21" node-id="237" stroke="none" target-height="127.91574" target-width="304" target-x="144" target-y="416.72427"></path></g><path d="M 435.08 416.23 L 444.39 416.26 L 444.60 421.79 L 444.34 427.92 L 443.62 433.83 L 442.46 439.56 L 440.85 445.11 L 438.81 450.55 L 436.39 455.73 L 433.60 460.66 L 430.43 465.37 L 426.91 469.83 L 423.09 473.97 L 418.98 477.81 L 414.54 481.35 L 409.86 484.53 L 404.95 487.34 L 399.80 489.77 L 394.39 491.82 L 388.86 493.44 L 383.17 494.61 L 377.28 495.33 L 371.19 495.59 L 365.09 495.33 L 359.21 494.61 L 353.51 493.44 L 347.98 491.82 L 342.58 489.77 L 337.43 487.34 L 332.52 484.53 L 327.83 481.35 L 323.40 477.81 L 319.28 473.97 L 315.46 469.83 L 311.94 465.37 L 308.77 460.66 L 305.99 455.73 L 303.57 450.55 L 301.52 445.11 L 299.91 439.56 L 298.75 433.83 L 298.04 427.92 L 297.78 421.79 L 297.93 416.98 L 333.66 416.62 L 369.75 416.32 L 369.75 416.32 L 373.45 416.32 L 405.04 416.28 L 429.04 416.23 Z" fill="#930027" fill-rule="evenodd" group-id="1,2,9" id="形状结合" node-id="76" stroke="none" target-height="79.35681" target-width="146.81808" target-x="297.77844" target-y="416.2294"></path></g><g node-id="263"><g node-id="272"><g node-id="275"><path d="M 528.00 416.72 L 832.00 416.72 L 829.14 429.03 L 825.87 440.50 L 822.20 451.18 L 818.17 461.11 L 813.77 470.34 L 809.04 478.91 L 803.96 486.85 L 798.54 494.21 L 792.79 501.02 L 786.70 507.29 L 780.25 513.06 L 773.44 518.33 L 766.25 523.13 L 758.65 527.47 L 750.63 531.33 L 742.16 534.73 L 733.21 537.66 L 723.74 540.10 L 713.73 542.05 L 703.12 543.47 L 691.90 544.34 L 680.00 544.64 L 668.10 544.34 L 656.88 543.47 L 646.27 542.05 L 636.26 540.10 L 626.79 537.66 L 617.84 534.73 L 609.37 531.33 L 601.35 527.47 L 593.75 523.13 L 586.56 518.33 L 579.75 513.06 L 573.30 507.29 L 567.21 501.02 L 561.46 494.21 L 556.04 486.85 L 550.96 478.91 L 546.23 470.34 L 541.83 461.11 L 537.80 451.18 L 534.13 440.50 L 530.86 429.03 L 528.00 416.72 Z" fill="#000000" fill-rule="evenodd" filter="url(#filter-16)" group-id="1,2,10,19,22" node-id="247" stroke="none" target-height="127.91577" target-width="304" target-x="528" target-y="416.72424"></path></g><path d="M 528.00 416.72 L 832.00 416.72 L 829.14 429.03 L 825.87 440.50 L 822.20 451.18 L 818.17 461.11 L 813.77 470.34 L 809.04 478.91 L 803.96 486.85 L 798.54 494.21 L 792.79 501.02 L 786.70 507.29 L 780.25 513.06 L 773.44 518.33 L 766.25 523.13 L 758.65 527.47 L 750.63 531.33 L 742.16 534.73 L 733.21 537.66 L 723.74 540.10 L 713.73 542.05 L 703.12 543.47 L 691.90 544.34 L 680.00 544.64 L 668.10 544.34 L 656.88 543.47 L 646.27 542.05 L 636.26 540.10 L 626.79 537.66 L 617.84 534.73 L 609.37 531.33 L 601.35 527.47 L 593.75 523.13 L 586.56 518.33 L 579.75 513.06 L 573.30 507.29 L 567.21 501.02 L 561.46 494.21 L 556.04 486.85 L 550.96 478.91 L 546.23 470.34 L 541.83 461.11 L 537.80 451.18 L 534.13 440.50 L 530.86 429.03 L 528.00 416.72 Z" fill="url(#linearGradient-12)" fill-rule="evenodd" group-id="1,2,10,19,23" node-id="252" stroke="none" target-height="127.91577" target-width="304" target-x="528" target-y="416.72424"></path></g><path d="M 818.94 416.80 L 828.90 416.83 L 829.10 422.36 L 828.85 428.49 L 828.13 434.40 L 826.97 440.13 L 825.36 445.68 L 823.31 451.12 L 820.90 456.30 L 818.11 461.23 L 814.94 465.94 L 811.42 470.40 L 807.60 474.54 L 803.48 478.38 L 799.05 481.92 L 794.36 485.10 L 789.45 487.91 L 784.30 490.34 L 778.90 492.39 L 773.37 494.01 L 767.68 495.18 L 761.79 495.90 L 755.69 496.16 L 749.60 495.90 L 743.71 495.18 L 738.02 494.01 L 732.49 492.39 L 727.09 490.34 L 721.94 487.91 L 717.03 485.10 L 712.34 481.92 L 707.91 478.38 L 703.79 474.54 L 699.97 470.40 L 696.45 465.94 L 693.28 461.23 L 690.49 456.30 L 688.08 451.12 L 686.03 445.68 L 684.42 440.13 L 683.26 434.40 L 682.54 428.49 L 682.29 422.36 L 682.47 417.11 L 718.24 417.03 L 754.26 416.89 L 754.26 416.89 L 756.74 416.89 L 757.96 416.89 L 760.37 416.89 L 790.94 416.84 L 814.24 416.80 Z" fill="#930027" fill-rule="evenodd" group-id="1,2,10" id="形状结合" node-id="81" stroke="none" target-height="79.35736" target-width="146.81812" target-x="682.2859" target-y="416.79858"></path></g></g></g></svg>