<?xml version="1.0" standalone="no"?><!DOCTYPE svg PUBLIC "-//W3C//DTD SVG 1.1//EN" "http://www.w3.org/Graphics/SVG/1.1/DTD/svg11.dtd"><svg t="1696580873678" class="icon" viewBox="0 0 1024 1024" version="1.1" xmlns="http://www.w3.org/2000/svg" p-id="36142" xmlns:xlink="http://www.w3.org/1999/xlink" width="200" height="200"><path d="M639.73376 184.32c97.04448 0 179.7632 61.3632 211.456 147.4048C930.43712 355.55328 988.16 429.0816 988.16 516.096c0 105.25696-84.48 190.78656-189.32736 192.4864l-3.18464 0.0256-4.51584-0.00512V839.68l-135.59808-131.07712-131.6352 0.00512a191.6928 191.6928 0 0 1-87.46496-20.97152L282.12736 839.68v-163.84H261.12c-124.416 0-225.28-100.864-225.28-225.28v-40.96c0-124.416 100.864-225.28 225.28-225.28h378.61376zM290.33984 380.928c-27.20256 0-49.2544 22.00576-49.2544 49.152s22.05184 49.152 49.2544 49.152c27.20256 0 49.2544-22.00576 49.2544-49.152s-22.05184-49.152-49.2544-49.152z m164.19328 0c-27.20256 0-49.2544 22.00576-49.2544 49.152s22.05184 49.152 49.2544 49.152c27.20256 0 49.2544-22.00576 49.2544-49.152s-22.05184-49.152-49.2544-49.152z m164.19328 0c-27.20768 0-49.2544 22.00576-49.2544 49.152s22.04672 49.152 49.2544 49.152c27.20256 0 49.2544-22.00576 49.2544-49.152s-22.05184-49.152-49.2544-49.152z" fill="#6464FF" p-id="36143"></path></svg>