<?xml version="1.0" standalone="no"?><!DOCTYPE svg PUBLIC "-//W3C//DTD SVG 1.1//EN" "http://www.w3.org/Graphics/SVG/1.1/DTD/svg11.dtd"><svg t="1696580772373" class="icon" viewBox="0 0 1024 1024" version="1.1" xmlns="http://www.w3.org/2000/svg" p-id="31089" xmlns:xlink="http://www.w3.org/1999/xlink" width="200" height="200"><path d="M904 179.2H124.8C78.4 179.2 40 217.6 40 264v551.2c0 46.4 38.4 84.8 84.8 84.8H904c46.4 0 84.8-38.4 84.8-84.8V264c0-47.2-38.4-84.8-84.8-84.8z" fill="#FFFFFF" opacity=".1" p-id="31090"></path><path d="M904 915.2H124.8c-56 0-100.8-45.6-100.8-100.8V264c0-56 45.6-100.8 100.8-100.8H904c56 0 100.8 45.6 100.8 100.8v551.2c0 54.4-45.6 100-100.8 100z m-780-720c-38.4 0-68.8 30.4-68.8 68.8v551.2c0 38.4 30.4 68.8 68.8 68.8h778.4c38.4 0 68.8-30.4 68.8-68.8V264c0-38.4-30.4-68.8-68.8-68.8H124z" fill="#01A9A8" p-id="31091"></path><path d="M119.2 769.6v-480c0-18.4 14.4-32 32-32h727.2c18.4 0 32 14.4 32 32v479.2" fill="#01A9A8" opacity=".15" p-id="31092"></path><path d="M927.2 769.6h-32v-480c0-8.8-7.2-16-16-16h-728c-8.8 0-16 7.2-16 16v479.2h-32V289.6c0-26.4 22.4-48.8 48.8-48.8h727.2c26.4 0 48.8 22.4 48.8 48.8l-0.8 480z" fill="#01A9A8" p-id="31093"></path><path d="M44 768.8h946.4" fill="#CFE5FF" p-id="31094"></path><path d="M44 752h946.4v32H44v-32z" fill="#01A9A8" p-id="31095"></path><path d="M503.2 824.8c0 11.2 8.8 20 20 20s20-8.8 20-20-8.8-20-20-20-20 8.8-20 20z" fill="#01A9A8" opacity=".15" p-id="31096"></path><path d="M651.2 1011.2H400v-96.8h32v64.8h186.4v-72.8h32l0.8 104.8z" fill="#01A9A8" p-id="31097"></path><path d="M732 1011.2H311.2c-8.8 0-16-7.2-16-16s7.2-16 16-16h420.8c8.8 0 16 7.2 16 16s-7.2 16-16 16z" fill="#01A9A8" p-id="31098"></path><path d="M764.8 220.8c0-24-14.4-46.4-33.6-57.6h-4.8c3.2-8 4.8-16 4.8-26.4 0-36-30.4-66.4-66.4-66.4h-2.4c-7.2-28-33.6-50.4-64-50.4-36 0-66.4 30.4-66.4 66.4 0-36-30.4-66.4-66.4-66.4-30.4 0-56.8 21.6-64 50.4H400c-36 0-66.4 30.4-66.4 66.4 0 8.8 2.4 18.4 4.8 25.6h-4.8c-20 11.2-33.6 33.6-33.6 57.6 0 26.4 16 50.4 38.4 60.8-3.2 6.4-6.4 14.4-6.4 22.4 0 22.4 14.4 40.8 33.6 46.4h4c-1.6 5.6-1.6 12.8-1.6 18.4 0 46.4 37.6 83.2 83.2 83.2S533.6 413.6 533.6 368c0 46.4 37.6 83.2 83.2 83.2S699.2 413.6 699.2 368c0-6.4-0.8-12.8-2.4-19.2h2.4c19.2-6.4 33.6-25.6 33.6-46.4 0-8-2.4-16-6.4-22.4 22.4-8.8 38.4-32 38.4-59.2z m-165.6-65.6v2.4-2.4z" fill="#FFFFFF" p-id="31099"></path><path d="M326.4 142.4c0 4.8 0.8 10.4 2.4 14.4-21.6 14.4-33.6 38.4-33.6 64.8s12.8 50.4 33.6 64.8c-0.8 4.8-2.4 10.4-2.4 14.4 0 22.4 12.8 43.2 32 54.4 0 2.4-0.8 6.4-0.8 8 0 52.8 42.4 95.2 95.2 95.2 33.6 0 62.4-16.8 79.2-42.4 16.8 26.4 46.4 42.4 79.2 42.4 52.8 0 95.2-42.4 95.2-95.2 0-2.4 0-6.4-0.8-8 19.2-11.2 32-32 32-54.4 0-4.8-0.8-10.4-2.4-14.4C756 272 768 248 768 221.6s-12.8-49.6-33.6-64.8c0.8-4.8 2.4-10.4 2.4-14.4 0-40.8-30.4-73.6-69.6-79.2-12-28-40.8-48.8-72.8-48.8-26.4 0-49.6 12.8-62.4 32-14.4-19.2-37.6-32-62.4-32-33.6 0-60.8 20-72.8 48.8-40 5.6-70.4 39.2-70.4 79.2z m269.6-96c26.4 0 47.2 21.6 47.2 47.2s-21.6 47.2-46.4 47.2v31.2c42.4 0 76.8-34.4 79.2-76 18.4 6.4 32 24 32 44.8 0 26.4-21.6 46.4-46.4 46.4v31.2c26.4 0 50.4-12.8 64.8-33.6 8.8 8.8 14.4 21.6 14.4 34.4 0 18.4-11.2 35.2-28 42.4l-15.2 7.2 7.2 14.4c2.4 4.8 4 10.4 4 14.4 0 8.8-4 16-10.4 22.4-15.2-31.2-47.2-56-84.8-56v34.4c34.4 0 62.4 30.4 62.4 65.6s-28 62.4-62.4 62.4-62.4-28-62.4-62.4V95.2c-3.2-26.4 19.2-48.8 44.8-48.8z m-205.6 50.4c2.4 42.4 38.4 76.8 80.8 76.8l0.8-31.2c-26.4 0-50.4-22.4-50.4-47.2S442.4 48 468.8 48c26.4 0 47.2 21.6 47.2 47.2v268.8c0 34.4-28 62.4-62.4 62.4s-62.4-28-62.4-62.4 31.2-64.8 66.4-64.8v-32c-38.4 0-73.6 23.2-88.8 54.4-6.4-6.4-10.4-14.4-10.4-22.4 0-4.8 2.4-10.4 4-14.4l7.2-14.4-15.2-6.4c-16.8-8-28-25.6-28-42.4 0-12.8 6.4-25.6 14.4-34.4 14.4 20 34.4 34.4 60.8 34.4l0.8-31.2c-26.4 0-44.8-21.6-44.8-46.4 0-22.4 14.4-40.8 32.8-47.2z" fill="#01A9A8" p-id="31100"></path><path d="M456 157.6c0 8.8 7.2 16 16 16s16-7.2 16-16-7.2-16-16-16-16 7.2-16 16zM386.4 204c0 8.8 7.2 16 16 16s16-7.2 16-16-8-16-16-16c-9.6 0-16 8-16 16zM440.8 283.2c0 8.8 7.2 16 16 16s16-7.2 16-16-7.2-16-16-16-16 7.2-16 16zM580.8 157.6c0 8.8 7.2 16 16 16s16-7.2 16-16-7.2-16-16-16-16 7.2-16 16zM644 204c0 8.8 7.2 16 16 16s16-7.2 16-16-7.2-16-16-16-16 8-16 16zM596 283.2c0 8.8 7.2 16 16 16s16-7.2 16-16-7.2-16-16-16-16 7.2-16 16zM732 558.4H586.4V444.8h32v80.8h113.6v32.8z" fill="#01A9A8" p-id="31101"></path><path d="M580.8 548.8c0 12 10.4 22.4 22.4 22.4s22.4-10.4 22.4-22.4c0-12-10.4-22.4-22.4-22.4-12 0.8-22.4 10.4-22.4 22.4z" fill="#FFFFFF" p-id="31102"></path><path d="M604 588.8c-21.6 0-38.4-16.8-38.4-38.4 0-21.6 16.8-38.4 38.4-38.4 21.6 0 38.4 16.8 38.4 38.4-0.8 20-17.6 38.4-38.4 38.4z m0-45.6c-3.2 0-6.4 2.4-6.4 6.4 0 3.2 2.4 6.4 6.4 6.4s6.4-2.4 6.4-6.4c-0.8-3.2-3.2-6.4-6.4-6.4z" fill="#01A9A8" p-id="31103"></path><path d="M721.6 543.2c0 19.2 15.2 34.4 34.4 34.4s34.4-15.2 34.4-34.4-15.2-34.4-34.4-34.4c-19.2-0.8-34.4 15.2-34.4 34.4z" fill="#FFFFFF" p-id="31104"></path><path d="M756 593.6c-28 0-50.4-22.4-50.4-50.4s22.4-50.4 50.4-50.4 50.4 22.4 50.4 50.4-22.4 50.4-50.4 50.4z m0-68.8c-10.4 0-18.4 8-18.4 18.4s8 18.4 18.4 18.4 18.4-8 18.4-18.4-8-18.4-18.4-18.4z" fill="#01A9A8" p-id="31105"></path><path d="M740 582.4h32v64.8h-32v-64.8z" fill="#01A9A8" p-id="31106"></path><path d="M733.6 665.6c0 12 10.4 22.4 22.4 22.4s22.4-10.4 22.4-22.4-10.4-22.4-22.4-22.4c-12-0.8-22.4 8.8-22.4 22.4z" fill="#FFFFFF" p-id="31107"></path><path d="M756 704c-21.6 0-38.4-16.8-38.4-38.4 0-21.6 16.8-38.4 38.4-38.4 21.6 0 38.4 16.8 38.4 38.4s-16 38.4-38.4 38.4z m0-44.8c-3.2 0-6.4 2.4-6.4 6.4 0 3.2 2.4 6.4 6.4 6.4s6.4-2.4 6.4-6.4-3.2-6.4-6.4-6.4zM440.8 436.8h32v80.8h-32V436.8z" fill="#01A9A8" p-id="31108"></path><path d="M427.2 543.2c0 16 12.8 30.4 30.4 30.4 16 0 30.4-12.8 30.4-30.4 0-16-12.8-30.4-30.4-30.4-16.8 0-30.4 12.8-30.4 30.4z" fill="#FFFFFF" p-id="31109"></path><path d="M457.6 588.8c-25.6 0-46.4-20-46.4-46.4s20-46.4 46.4-46.4 46.4 20 46.4 46.4c-0.8 25.6-20.8 46.4-46.4 46.4z m0-60c-7.2 0-14.4 6.4-14.4 14.4s6.4 14.4 14.4 14.4 14.4-6.4 14.4-14.4-7.2-14.4-14.4-14.4zM246.4 372H384v32H246.4v-32z" fill="#01A9A8" p-id="31110"></path><path d="M192.8 381.6c0 16 12.8 30.4 30.4 30.4 16 0 30.4-12.8 30.4-30.4 0-16-12.8-30.4-30.4-30.4s-30.4 12.8-30.4 30.4z" fill="#FFFFFF" p-id="31111"></path><path d="M223.2 426.4c-25.6 0-46.4-20-46.4-46.4s20-46.4 46.4-46.4 46.4 20 46.4 46.4-20.8 46.4-46.4 46.4z m0-59.2c-7.2 0-14.4 6.4-14.4 14.4s6.4 14.4 14.4 14.4 14.4-6.4 14.4-14.4c0-8.8-7.2-14.4-14.4-14.4z" fill="#01A9A8" p-id="31112"></path><path d="M206.4 412.8h32v80.8h-32V412.8z" fill="#01A9A8" p-id="31113"></path><path d="M192.8 527.2c0 16 12.8 30.4 30.4 30.4 16 0 30.4-12.8 30.4-30.4 0-16-12.8-30.4-30.4-30.4s-30.4 12.8-30.4 30.4z" fill="#FFFFFF" p-id="31114"></path><path d="M223.2 572c-25.6 0-46.4-20-46.4-46.4s20-46.4 46.4-46.4 46.4 20 46.4 46.4-20.8 46.4-46.4 46.4z m0-59.2c-7.2 0-14.4 6.4-14.4 14.4s6.4 14.4 14.4 14.4 14.4-6.4 14.4-14.4-7.2-14.4-14.4-14.4zM683.2 372h113.6v32H683.2v-32z" fill="#01A9A8" p-id="31115"></path><path d="M786.4 389.6c0 19.2 15.2 34.4 34.4 34.4s34.4-15.2 34.4-34.4-15.2-34.4-34.4-34.4c-19.2-1.6-34.4 15.2-34.4 34.4z" fill="#FFFFFF" p-id="31116"></path><path d="M820.8 440c-28 0-50.4-22.4-50.4-50.4s22.4-50.4 50.4-50.4 50.4 22.4 50.4 50.4-22.4 50.4-50.4 50.4z m0-68.8c-10.4 0-18.4 8-18.4 18.4s8 18.4 18.4 18.4 18.4-8 18.4-18.4-8-18.4-18.4-18.4z" fill="#01A9A8" p-id="31117"></path></svg>