<?xml version="1.0" standalone="no"?><!DOCTYPE svg PUBLIC "-//W3C//DTD SVG 1.1//EN" "http://www.w3.org/Graphics/SVG/1.1/DTD/svg11.dtd"><svg t="1696679159127" class="icon" viewBox="0 0 1024 1024" version="1.1" xmlns="http://www.w3.org/2000/svg" p-id="9047" width="128" height="128" xmlns:xlink="http://www.w3.org/1999/xlink"><path d="M768 128a170.666667 170.666667 0 0 1 170.666667 170.666667v426.666666a170.666667 170.666667 0 0 1-170.666667 170.666667H256a170.666667 170.666667 0 0 1-170.666667-170.666667V298.666667a170.666667 170.666667 0 0 1 170.666667-170.666667h512z m-298.666667 85.333333H256a85.333333 85.333333 0 0 0-85.12 78.933334L170.666667 298.666667v426.666666a85.333333 85.333333 0 0 0 78.933333 85.12L256 810.666667h213.333333v-128a42.666667 42.666667 0 0 1 85.333334 0v128h213.333333a85.333333 85.333333 0 0 0 85.12-78.933334L853.333333 725.333333V298.666667a85.333333 85.333333 0 0 0-78.933333-85.12L768 213.333333h-213.333333v128a42.666667 42.666667 0 0 1-85.333334 0V213.333333z m192 200.832a21.333333 21.333333 0 0 1 15.104 6.272l76.458667 76.458667a21.333333 21.333333 0 0 1 0 30.208l-76.458667 76.458667a21.333333 21.333333 0 0 1-36.437333-15.061334V554.666667H384v33.834666a21.333333 21.333333 0 0 1-36.437333 15.061334l-76.458667-76.458667a21.333333 21.333333 0 0 1 0-30.208l76.458667-76.458667a21.333333 21.333333 0 0 1 36.437333 15.061334V469.333333h256v-33.834666a21.333333 21.333333 0 0 1 21.333333-21.333334z" fill="#d4237a" p-id="9048"></path></svg>